ISO-10303-21;
HEADER;
/* Generated by software containing ST-Developer
 * from STEP Tools, Inc. (www.steptools.com) 
 */

FILE_DESCRIPTION(
/* description */ (''),
/* implementation_level */ '2;1');

FILE_NAME(
/* name */ 'reprak.step',
/* time_stamp */ '2026-04-20T16:23:15+02:00',
/* author */ (''),
/* organization */ (''),
/* preprocessor_version */ 'ST-DEVELOPER v20.1',
/* originating_system */ 'Autodesk Translation Framework v14.24.0.0',
/* authorisation */ '');

FILE_SCHEMA (('AUTOMOTIVE_DESIGN { 1 0 10303 214 3 1 1 }'));
ENDSEC;

DATA;
#10=MECHANICAL_DESIGN_GEOMETRIC_PRESENTATION_REPRESENTATION('',(#17),#528);
#11=ITEM_DEFINED_TRANSFORMATION($,$,#312,#344);
#12=(
REPRESENTATION_RELATIONSHIP($,$,#539,#538)
REPRESENTATION_RELATIONSHIP_WITH_TRANSFORMATION(#11)
SHAPE_REPRESENTATION_RELATIONSHIP()
);
#13=CONTEXT_DEPENDENT_SHAPE_REPRESENTATION(#12,#537);
#14=NEXT_ASSEMBLY_USAGE_OCCURRENCE('Reprak:1','Reprak:1','Reprak:1',#541,
#542,'Reprak:1');
#15=SHAPE_REPRESENTATION_RELATIONSHIP('SRR','None',#539,#16);
#16=ADVANCED_BREP_SHAPE_REPRESENTATION('',(#18),#527);
#17=STYLED_ITEM('',(#553),#18);
#18=MANIFOLD_SOLID_BREP('Body1',#298);
#19=FACE_BOUND('',#70,.T.);
#20=FACE_BOUND('',#77,.T.);
#21=CIRCLE('',#315,4.65609467432959);
#22=CIRCLE('',#316,4.65609467432959);
#23=CIRCLE('',#319,4.65609467432959);
#24=CIRCLE('',#320,4.65609467432959);
#25=CIRCLE('',#323,3.);
#26=CIRCLE('',#324,3.);
#27=CIRCLE('',#326,3.);
#28=CIRCLE('',#327,3.);
#29=CIRCLE('',#328,3.);
#30=CIRCLE('',#331,3.);
#31=CIRCLE('',#333,3.);
#32=CIRCLE('',#335,0.5);
#33=CIRCLE('',#337,3.);
#34=CIRCLE('',#339,0.5);
#35=CYLINDRICAL_SURFACE('',#314,4.65609467432959);
#36=CYLINDRICAL_SURFACE('',#318,4.65609467432959);
#37=CYLINDRICAL_SURFACE('',#322,3.);
#38=CYLINDRICAL_SURFACE('',#330,3.);
#39=CYLINDRICAL_SURFACE('',#332,3.);
#40=CYLINDRICAL_SURFACE('',#336,3.);
#41=CYLINDRICAL_SURFACE('',#338,0.5);
#42=FACE_OUTER_BOUND('',#59,.T.);
#43=FACE_OUTER_BOUND('',#60,.T.);
#44=FACE_OUTER_BOUND('',#61,.T.);
#45=FACE_OUTER_BOUND('',#62,.T.);
#46=FACE_OUTER_BOUND('',#63,.T.);
#47=FACE_OUTER_BOUND('',#64,.T.);
#48=FACE_OUTER_BOUND('',#65,.T.);
#49=FACE_OUTER_BOUND('',#66,.T.);
#50=FACE_OUTER_BOUND('',#67,.T.);
#51=FACE_OUTER_BOUND('',#68,.T.);
#52=FACE_OUTER_BOUND('',#69,.T.);
#53=FACE_OUTER_BOUND('',#71,.T.);
#54=FACE_OUTER_BOUND('',#72,.T.);
#55=FACE_OUTER_BOUND('',#73,.T.);
#56=FACE_OUTER_BOUND('',#74,.T.);
#57=FACE_OUTER_BOUND('',#75,.T.);
#58=FACE_OUTER_BOUND('',#76,.T.);
#59=EDGE_LOOP('',(#193,#194,#195,#196));
#60=EDGE_LOOP('',(#197,#198,#199,#200));
#61=EDGE_LOOP('',(#201,#202,#203,#204));
#62=EDGE_LOOP('',(#205,#206,#207,#208));
#63=EDGE_LOOP('',(#209,#210,#211,#212));
#64=EDGE_LOOP('',(#213,#214,#215,#216));
#65=EDGE_LOOP('',(#217,#218,#219,#220,#221,#222,#223,#224));
#66=EDGE_LOOP('',(#225,#226,#227,#228));
#67=EDGE_LOOP('',(#229,#230,#231,#232));
#68=EDGE_LOOP('',(#233,#234,#235,#236));
#69=EDGE_LOOP('',(#237,#238,#239,#240));
#70=EDGE_LOOP('',(#241));
#71=EDGE_LOOP('',(#242,#243,#244,#245));
#72=EDGE_LOOP('',(#246,#247,#248,#249));
#73=EDGE_LOOP('',(#250));
#74=EDGE_LOOP('',(#251,#252,#253,#254));
#75=EDGE_LOOP('',(#255,#256,#257,#258));
#76=EDGE_LOOP('',(#259,#260,#261,#262,#263,#264,#265,#266));
#77=EDGE_LOOP('',(#267,#268,#269,#270));
#78=LINE('',#443,#103);
#79=LINE('',#445,#104);
#80=LINE('',#447,#105);
#81=LINE('',#448,#106);
#82=LINE('',#453,#107);
#83=LINE('',#457,#108);
#84=LINE('',#459,#109);
#85=LINE('',#460,#110);
#86=LINE('',#470,#111);
#87=LINE('',#473,#112);
#88=LINE('',#476,#113);
#89=LINE('',#480,#114);
#90=LINE('',#484,#115);
#91=LINE('',#487,#116);
#92=LINE('',#490,#117);
#93=LINE('',#491,#118);
#94=LINE('',#495,#119);
#95=LINE('',#500,#120);
#96=LINE('',#501,#121);
#97=LINE('',#504,#122);
#98=LINE('',#505,#123);
#99=LINE('',#511,#124);
#100=LINE('',#515,#125);
#101=LINE('',#518,#126);
#102=LINE('',#520,#127);
#103=VECTOR('',#351,10.);
#104=VECTOR('',#352,10.);
#105=VECTOR('',#353,10.);
#106=VECTOR('',#354,10.);
#107=VECTOR('',#359,10.);
#108=VECTOR('',#364,10.);
#109=VECTOR('',#365,10.);
#110=VECTOR('',#366,10.);
#111=VECTOR('',#379,10.);
#112=VECTOR('',#382,10.);
#113=VECTOR('',#385,10.);
#114=VECTOR('',#388,10.);
#115=VECTOR('',#391,10.);
#116=VECTOR('',#394,10.);
#117=VECTOR('',#397,10.);
#118=VECTOR('',#398,10.);
#119=VECTOR('',#403,10.);
#120=VECTOR('',#408,10.);
#121=VECTOR('',#409,10.);
#122=VECTOR('',#412,10.);
#123=VECTOR('',#413,10.);
#124=VECTOR('',#420,10.);
#125=VECTOR('',#425,0.5);
#126=VECTOR('',#430,10.);
#127=VECTOR('',#433,10.);
#128=VERTEX_POINT('',#441);
#129=VERTEX_POINT('',#442);
#130=VERTEX_POINT('',#444);
#131=VERTEX_POINT('',#446);
#132=VERTEX_POINT('',#450);
#133=VERTEX_POINT('',#452);
#134=VERTEX_POINT('',#456);
#135=VERTEX_POINT('',#458);
#136=VERTEX_POINT('',#466);
#137=VERTEX_POINT('',#467);
#138=VERTEX_POINT('',#469);
#139=VERTEX_POINT('',#471);
#140=VERTEX_POINT('',#475);
#141=VERTEX_POINT('',#477);
#142=VERTEX_POINT('',#479);
#143=VERTEX_POINT('',#481);
#144=VERTEX_POINT('',#483);
#145=VERTEX_POINT('',#485);
#146=VERTEX_POINT('',#489);
#147=VERTEX_POINT('',#493);
#148=VERTEX_POINT('',#497);
#149=VERTEX_POINT('',#498);
#150=VERTEX_POINT('',#503);
#151=VERTEX_POINT('',#506);
#152=VERTEX_POINT('',#509);
#153=VERTEX_POINT('',#513);
#154=EDGE_CURVE('',#128,#129,#78,.T.);
#155=EDGE_CURVE('',#128,#130,#79,.T.);
#156=EDGE_CURVE('',#130,#131,#80,.T.);
#157=EDGE_CURVE('',#129,#131,#81,.T.);
#158=EDGE_CURVE('',#132,#128,#21,.T.);
#159=EDGE_CURVE('',#132,#133,#82,.T.);
#160=EDGE_CURVE('',#133,#130,#22,.T.);
#161=EDGE_CURVE('',#134,#132,#83,.T.);
#162=EDGE_CURVE('',#134,#135,#84,.T.);
#163=EDGE_CURVE('',#135,#133,#85,.T.);
#164=EDGE_CURVE('',#129,#134,#23,.T.);
#165=EDGE_CURVE('',#131,#135,#24,.T.);
#166=EDGE_CURVE('',#136,#137,#25,.T.);
#167=EDGE_CURVE('',#137,#138,#86,.T.);
#168=EDGE_CURVE('',#138,#139,#26,.T.);
#169=EDGE_CURVE('',#139,#136,#87,.T.);
#170=EDGE_CURVE('',#140,#138,#88,.T.);
#171=EDGE_CURVE('',#141,#140,#27,.T.);
#172=EDGE_CURVE('',#142,#141,#89,.T.);
#173=EDGE_CURVE('',#143,#142,#28,.T.);
#174=EDGE_CURVE('',#144,#143,#90,.T.);
#175=EDGE_CURVE('',#145,#144,#29,.T.);
#176=EDGE_CURVE('',#139,#145,#91,.T.);
#177=EDGE_CURVE('',#146,#137,#92,.T.);
#178=EDGE_CURVE('',#140,#146,#93,.T.);
#179=EDGE_CURVE('',#146,#147,#30,.T.);
#180=EDGE_CURVE('',#147,#141,#94,.T.);
#181=EDGE_CURVE('',#148,#149,#31,.T.);
#182=EDGE_CURVE('',#149,#145,#95,.T.);
#183=EDGE_CURVE('',#144,#148,#96,.T.);
#184=EDGE_CURVE('',#150,#143,#97,.T.);
#185=EDGE_CURVE('',#148,#150,#98,.T.);
#186=EDGE_CURVE('',#151,#151,#32,.T.);
#187=EDGE_CURVE('',#152,#150,#33,.T.);
#188=EDGE_CURVE('',#142,#152,#99,.T.);
#189=EDGE_CURVE('',#153,#153,#34,.T.);
#190=EDGE_CURVE('',#153,#151,#100,.T.);
#191=EDGE_CURVE('',#152,#147,#101,.T.);
#192=EDGE_CURVE('',#136,#149,#102,.T.);
#193=ORIENTED_EDGE('',*,*,#154,.F.);
#194=ORIENTED_EDGE('',*,*,#155,.T.);
#195=ORIENTED_EDGE('',*,*,#156,.T.);
#196=ORIENTED_EDGE('',*,*,#157,.F.);
#197=ORIENTED_EDGE('',*,*,#158,.F.);
#198=ORIENTED_EDGE('',*,*,#159,.T.);
#199=ORIENTED_EDGE('',*,*,#160,.T.);
#200=ORIENTED_EDGE('',*,*,#155,.F.);
#201=ORIENTED_EDGE('',*,*,#161,.F.);
#202=ORIENTED_EDGE('',*,*,#162,.T.);
#203=ORIENTED_EDGE('',*,*,#163,.T.);
#204=ORIENTED_EDGE('',*,*,#159,.F.);
#205=ORIENTED_EDGE('',*,*,#164,.F.);
#206=ORIENTED_EDGE('',*,*,#157,.T.);
#207=ORIENTED_EDGE('',*,*,#165,.T.);
#208=ORIENTED_EDGE('',*,*,#162,.F.);
#209=ORIENTED_EDGE('',*,*,#165,.F.);
#210=ORIENTED_EDGE('',*,*,#156,.F.);
#211=ORIENTED_EDGE('',*,*,#160,.F.);
#212=ORIENTED_EDGE('',*,*,#163,.F.);
#213=ORIENTED_EDGE('',*,*,#166,.T.);
#214=ORIENTED_EDGE('',*,*,#167,.T.);
#215=ORIENTED_EDGE('',*,*,#168,.T.);
#216=ORIENTED_EDGE('',*,*,#169,.T.);
#217=ORIENTED_EDGE('',*,*,#168,.F.);
#218=ORIENTED_EDGE('',*,*,#170,.F.);
#219=ORIENTED_EDGE('',*,*,#171,.F.);
#220=ORIENTED_EDGE('',*,*,#172,.F.);
#221=ORIENTED_EDGE('',*,*,#173,.F.);
#222=ORIENTED_EDGE('',*,*,#174,.F.);
#223=ORIENTED_EDGE('',*,*,#175,.F.);
#224=ORIENTED_EDGE('',*,*,#176,.F.);
#225=ORIENTED_EDGE('',*,*,#167,.F.);
#226=ORIENTED_EDGE('',*,*,#177,.F.);
#227=ORIENTED_EDGE('',*,*,#178,.F.);
#228=ORIENTED_EDGE('',*,*,#170,.T.);
#229=ORIENTED_EDGE('',*,*,#179,.T.);
#230=ORIENTED_EDGE('',*,*,#180,.T.);
#231=ORIENTED_EDGE('',*,*,#171,.T.);
#232=ORIENTED_EDGE('',*,*,#178,.T.);
#233=ORIENTED_EDGE('',*,*,#181,.T.);
#234=ORIENTED_EDGE('',*,*,#182,.T.);
#235=ORIENTED_EDGE('',*,*,#175,.T.);
#236=ORIENTED_EDGE('',*,*,#183,.T.);
#237=ORIENTED_EDGE('',*,*,#183,.F.);
#238=ORIENTED_EDGE('',*,*,#174,.T.);
#239=ORIENTED_EDGE('',*,*,#184,.F.);
#240=ORIENTED_EDGE('',*,*,#185,.F.);
#241=ORIENTED_EDGE('',*,*,#186,.T.);
#242=ORIENTED_EDGE('',*,*,#187,.T.);
#243=ORIENTED_EDGE('',*,*,#184,.T.);
#244=ORIENTED_EDGE('',*,*,#173,.T.);
#245=ORIENTED_EDGE('',*,*,#188,.T.);
#246=ORIENTED_EDGE('',*,*,#189,.F.);
#247=ORIENTED_EDGE('',*,*,#190,.T.);
#248=ORIENTED_EDGE('',*,*,#186,.F.);
#249=ORIENTED_EDGE('',*,*,#190,.F.);
#250=ORIENTED_EDGE('',*,*,#189,.T.);
#251=ORIENTED_EDGE('',*,*,#180,.F.);
#252=ORIENTED_EDGE('',*,*,#191,.F.);
#253=ORIENTED_EDGE('',*,*,#188,.F.);
#254=ORIENTED_EDGE('',*,*,#172,.T.);
#255=ORIENTED_EDGE('',*,*,#169,.F.);
#256=ORIENTED_EDGE('',*,*,#176,.T.);
#257=ORIENTED_EDGE('',*,*,#182,.F.);
#258=ORIENTED_EDGE('',*,*,#192,.F.);
#259=ORIENTED_EDGE('',*,*,#166,.F.);
#260=ORIENTED_EDGE('',*,*,#192,.T.);
#261=ORIENTED_EDGE('',*,*,#181,.F.);
#262=ORIENTED_EDGE('',*,*,#185,.T.);
#263=ORIENTED_EDGE('',*,*,#187,.F.);
#264=ORIENTED_EDGE('',*,*,#191,.T.);
#265=ORIENTED_EDGE('',*,*,#179,.F.);
#266=ORIENTED_EDGE('',*,*,#177,.T.);
#267=ORIENTED_EDGE('',*,*,#154,.T.);
#268=ORIENTED_EDGE('',*,*,#164,.T.);
#269=ORIENTED_EDGE('',*,*,#161,.T.);
#270=ORIENTED_EDGE('',*,*,#158,.T.);
#271=PLANE('',#313);
#272=PLANE('',#317);
#273=PLANE('',#321);
#274=PLANE('',#325);
#275=PLANE('',#329);
#276=PLANE('',#334);
#277=PLANE('',#340);
#278=PLANE('',#341);
#279=PLANE('',#342);
#280=PLANE('',#343);
#281=ADVANCED_FACE('',(#42),#271,.F.);
#282=ADVANCED_FACE('',(#43),#35,.F.);
#283=ADVANCED_FACE('',(#44),#272,.F.);
#284=ADVANCED_FACE('',(#45),#36,.F.);
#285=ADVANCED_FACE('',(#46),#273,.T.);
#286=ADVANCED_FACE('',(#47),#37,.T.);
#287=ADVANCED_FACE('',(#48),#274,.F.);
#288=ADVANCED_FACE('',(#49),#275,.T.);
#289=ADVANCED_FACE('',(#50),#38,.T.);
#290=ADVANCED_FACE('',(#51),#39,.T.);
#291=ADVANCED_FACE('',(#52,#19),#276,.T.);
#292=ADVANCED_FACE('',(#53),#40,.T.);
#293=ADVANCED_FACE('',(#54),#41,.T.);
#294=ADVANCED_FACE('',(#55),#277,.T.);
#295=ADVANCED_FACE('',(#56),#278,.T.);
#296=ADVANCED_FACE('',(#57),#279,.T.);
#297=ADVANCED_FACE('',(#58,#20),#280,.T.);
#298=CLOSED_SHELL('',(#281,#282,#283,#284,#285,#286,#287,#288,#289,#290,
#291,#292,#293,#294,#295,#296,#297));
#299=DERIVED_UNIT_ELEMENT(#301,1.);
#300=DERIVED_UNIT_ELEMENT(#530,-3.);
#301=(
MASS_UNIT()
NAMED_UNIT(*)
SI_UNIT(.KILO.,.GRAM.)
);
#302=DERIVED_UNIT((#299,#300));
#303=MEASURE_REPRESENTATION_ITEM('density measure',
POSITIVE_RATIO_MEASURE(7850.),#302);
#304=PROPERTY_DEFINITION_REPRESENTATION(#309,#306);
#305=PROPERTY_DEFINITION_REPRESENTATION(#310,#307);
#306=REPRESENTATION('material name',(#308),#527);
#307=REPRESENTATION('density',(#303),#527);
#308=DESCRIPTIVE_REPRESENTATION_ITEM('Steel','Steel');
#309=PROPERTY_DEFINITION('material property','material name',#542);
#310=PROPERTY_DEFINITION('material property','density of part',#542);
#311=AXIS2_PLACEMENT_3D('',#438,#345,#346);
#312=AXIS2_PLACEMENT_3D('',#439,#347,#348);
#313=AXIS2_PLACEMENT_3D('',#440,#349,#350);
#314=AXIS2_PLACEMENT_3D('',#449,#355,#356);
#315=AXIS2_PLACEMENT_3D('',#451,#357,#358);
#316=AXIS2_PLACEMENT_3D('',#454,#360,#361);
#317=AXIS2_PLACEMENT_3D('',#455,#362,#363);
#318=AXIS2_PLACEMENT_3D('',#461,#367,#368);
#319=AXIS2_PLACEMENT_3D('',#462,#369,#370);
#320=AXIS2_PLACEMENT_3D('',#463,#371,#372);
#321=AXIS2_PLACEMENT_3D('',#464,#373,#374);
#322=AXIS2_PLACEMENT_3D('',#465,#375,#376);
#323=AXIS2_PLACEMENT_3D('',#468,#377,#378);
#324=AXIS2_PLACEMENT_3D('',#472,#380,#381);
#325=AXIS2_PLACEMENT_3D('',#474,#383,#384);
#326=AXIS2_PLACEMENT_3D('',#478,#386,#387);
#327=AXIS2_PLACEMENT_3D('',#482,#389,#390);
#328=AXIS2_PLACEMENT_3D('',#486,#392,#393);
#329=AXIS2_PLACEMENT_3D('',#488,#395,#396);
#330=AXIS2_PLACEMENT_3D('',#492,#399,#400);
#331=AXIS2_PLACEMENT_3D('',#494,#401,#402);
#332=AXIS2_PLACEMENT_3D('',#496,#404,#405);
#333=AXIS2_PLACEMENT_3D('',#499,#406,#407);
#334=AXIS2_PLACEMENT_3D('',#502,#410,#411);
#335=AXIS2_PLACEMENT_3D('',#507,#414,#415);
#336=AXIS2_PLACEMENT_3D('',#508,#416,#417);
#337=AXIS2_PLACEMENT_3D('',#510,#418,#419);
#338=AXIS2_PLACEMENT_3D('',#512,#421,#422);
#339=AXIS2_PLACEMENT_3D('',#514,#423,#424);
#340=AXIS2_PLACEMENT_3D('',#516,#426,#427);
#341=AXIS2_PLACEMENT_3D('',#517,#428,#429);
#342=AXIS2_PLACEMENT_3D('',#519,#431,#432);
#343=AXIS2_PLACEMENT_3D('',#521,#434,#435);
#344=AXIS2_PLACEMENT_3D('',#522,#436,#437);
#345=DIRECTION('axis',(0.,0.,1.));
#346=DIRECTION('refdir',(1.,0.,0.));
#347=DIRECTION('axis',(0.,0.,1.));
#348=DIRECTION('refdir',(1.,0.,0.));
#349=DIRECTION('center_axis',(-1.,0.,0.));
#350=DIRECTION('ref_axis',(0.,1.,0.));
#351=DIRECTION('',(0.,1.,0.));
#352=DIRECTION('',(0.,0.,-1.));
#353=DIRECTION('',(0.,1.,0.));
#354=DIRECTION('',(0.,0.,-1.));
#355=DIRECTION('center_axis',(0.,0.,-1.));
#356=DIRECTION('ref_axis',(-1.,0.,0.));
#357=DIRECTION('center_axis',(0.,0.,-1.));
#358=DIRECTION('ref_axis',(-1.,0.,0.));
#359=DIRECTION('',(0.,0.,-1.));
#360=DIRECTION('center_axis',(0.,0.,-1.));
#361=DIRECTION('ref_axis',(-1.,0.,0.));
#362=DIRECTION('center_axis',(1.,0.,0.));
#363=DIRECTION('ref_axis',(0.,-1.,0.));
#364=DIRECTION('',(0.,-1.,0.));
#365=DIRECTION('',(0.,0.,-1.));
#366=DIRECTION('',(0.,-1.,0.));
#367=DIRECTION('center_axis',(0.,0.,-1.));
#368=DIRECTION('ref_axis',(1.,0.,0.));
#369=DIRECTION('center_axis',(0.,0.,-1.));
#370=DIRECTION('ref_axis',(1.,0.,0.));
#371=DIRECTION('center_axis',(0.,0.,-1.));
#372=DIRECTION('ref_axis',(1.,0.,0.));
#373=DIRECTION('center_axis',(0.,0.,1.));
#374=DIRECTION('ref_axis',(-1.,0.,0.));
#375=DIRECTION('center_axis',(0.,0.,1.));
#376=DIRECTION('ref_axis',(-0.707106781186548,0.707106781186547,0.));
#377=DIRECTION('center_axis',(0.,0.,-1.));
#378=DIRECTION('ref_axis',(-0.707106781186548,0.707106781186547,0.));
#379=DIRECTION('',(0.,0.,-1.));
#380=DIRECTION('center_axis',(0.,0.,1.));
#381=DIRECTION('ref_axis',(-0.707106781186548,0.707106781186547,0.));
#382=DIRECTION('',(0.,0.,1.));
#383=DIRECTION('center_axis',(0.,0.,1.));
#384=DIRECTION('ref_axis',(1.,0.,0.));
#385=DIRECTION('',(-1.,0.,0.));
#386=DIRECTION('center_axis',(0.,0.,1.));
#387=DIRECTION('ref_axis',(0.707106781186547,0.707106781186547,0.));
#388=DIRECTION('',(0.,1.,0.));
#389=DIRECTION('center_axis',(0.,0.,1.));
#390=DIRECTION('ref_axis',(0.707106781186548,-0.707106781186547,0.));
#391=DIRECTION('',(1.,-1.40592885940268E-32,0.));
#392=DIRECTION('center_axis',(0.,0.,1.));
#393=DIRECTION('ref_axis',(-0.707106781186548,-0.707106781186548,0.));
#394=DIRECTION('',(-1.28395329625816E-33,-1.,0.));
#395=DIRECTION('center_axis',(0.,1.,0.));
#396=DIRECTION('ref_axis',(-1.,0.,0.));
#397=DIRECTION('',(-1.,0.,0.));
#398=DIRECTION('',(0.,0.,1.));
#399=DIRECTION('center_axis',(0.,0.,1.));
#400=DIRECTION('ref_axis',(0.707106781186547,0.707106781186547,0.));
#401=DIRECTION('center_axis',(0.,0.,-1.));
#402=DIRECTION('ref_axis',(0.707106781186547,0.707106781186547,0.));
#403=DIRECTION('',(0.,0.,-1.));
#404=DIRECTION('center_axis',(0.,0.,1.));
#405=DIRECTION('ref_axis',(-0.707106781186548,-0.707106781186548,0.));
#406=DIRECTION('center_axis',(0.,0.,-1.));
#407=DIRECTION('ref_axis',(-0.707106781186548,-0.707106781186548,0.));
#408=DIRECTION('',(0.,0.,-1.));
#409=DIRECTION('',(0.,0.,1.));
#410=DIRECTION('center_axis',(-1.40592885940268E-32,-1.,0.));
#411=DIRECTION('ref_axis',(1.,-1.40592885940268E-32,0.));
#412=DIRECTION('',(0.,0.,-1.));
#413=DIRECTION('',(1.,-1.40592885940268E-32,0.));
#414=DIRECTION('center_axis',(1.40592885940268E-32,1.,0.));
#415=DIRECTION('ref_axis',(1.,0.,0.));
#416=DIRECTION('center_axis',(0.,0.,1.));
#417=DIRECTION('ref_axis',(0.707106781186548,-0.707106781186547,0.));
#418=DIRECTION('center_axis',(0.,0.,-1.));
#419=DIRECTION('ref_axis',(0.707106781186548,-0.707106781186547,0.));
#420=DIRECTION('',(0.,0.,1.));
#421=DIRECTION('center_axis',(0.,-1.,0.));
#422=DIRECTION('ref_axis',(1.,0.,0.));
#423=DIRECTION('center_axis',(0.,-1.,0.));
#424=DIRECTION('ref_axis',(1.,0.,0.));
#425=DIRECTION('',(0.,1.,0.));
#426=DIRECTION('center_axis',(0.,-1.,0.));
#427=DIRECTION('ref_axis',(1.,0.,0.));
#428=DIRECTION('center_axis',(1.,0.,0.));
#429=DIRECTION('ref_axis',(0.,1.,0.));
#430=DIRECTION('',(0.,1.,0.));
#431=DIRECTION('center_axis',(-1.,1.28395329625816E-33,0.));
#432=DIRECTION('ref_axis',(-1.28395329625816E-33,-1.,0.));
#433=DIRECTION('',(-1.28395329625816E-33,-1.,0.));
#434=DIRECTION('center_axis',(0.,0.,1.));
#435=DIRECTION('ref_axis',(1.,0.,0.));
#436=DIRECTION('',(0.,0.,1.));
#437=DIRECTION('',(1.,0.,0.));
#438=CARTESIAN_POINT('',(0.,0.,0.));
#439=CARTESIAN_POINT('',(0.,0.,0.));
#440=CARTESIAN_POINT('Origin',(5.68781087485824,6.50278868826603,6.8));
#441=CARTESIAN_POINT('',(5.68781087485824,6.50278868826603,6.8));
#442=CARTESIAN_POINT('',(5.68781087485824,24.,6.8));
#443=CARTESIAN_POINT('',(5.68781087485824,10.751394344133,6.8));
#444=CARTESIAN_POINT('',(5.68781087485824,6.50278868826603,6.6));
#445=CARTESIAN_POINT('',(5.68781087485824,6.50278868826603,6.8));
#446=CARTESIAN_POINT('',(5.68781087485824,24.,6.6));
#447=CARTESIAN_POINT('',(5.68781087485824,6.50278868826603,6.6));
#448=CARTESIAN_POINT('',(5.68781087485824,24.,6.8));
#449=CARTESIAN_POINT('Origin',(10.3439055491878,6.50278868826603,6.8));
#450=CARTESIAN_POINT('',(15.0000002235174,6.50278868826603,6.8));
#451=CARTESIAN_POINT('Origin',(10.3439055491878,6.50278868826603,6.8));
#452=CARTESIAN_POINT('',(15.0000002235174,6.50278868826603,6.6));
#453=CARTESIAN_POINT('',(15.0000002235174,6.50278868826603,6.8));
#454=CARTESIAN_POINT('Origin',(10.3439055491878,6.50278868826603,6.6));
#455=CARTESIAN_POINT('Origin',(15.0000002235174,24.,6.8));
#456=CARTESIAN_POINT('',(15.0000002235174,24.,6.8));
#457=CARTESIAN_POINT('',(15.0000002235174,19.5,6.8));
#458=CARTESIAN_POINT('',(15.0000002235174,24.,6.6));
#459=CARTESIAN_POINT('',(15.0000002235174,24.,6.8));
#460=CARTESIAN_POINT('',(15.0000002235174,24.,6.6));
#461=CARTESIAN_POINT('Origin',(10.3439055491878,24.,6.8));
#462=CARTESIAN_POINT('Origin',(10.3439055491878,24.,6.8));
#463=CARTESIAN_POINT('Origin',(10.3439055491878,24.,6.6));
#464=CARTESIAN_POINT('Origin',(10.3439055491878,15.251394344133,6.6));
#465=CARTESIAN_POINT('Origin',(3.,27.,0.));
#466=CARTESIAN_POINT('',(3.46667389989702E-32,27.,6.8));
#467=CARTESIAN_POINT('',(3.,30.,6.8));
#468=CARTESIAN_POINT('Origin',(3.,27.,6.8));
#469=CARTESIAN_POINT('',(3.,30.,0.));
#470=CARTESIAN_POINT('',(3.,30.,0.));
#471=CARTESIAN_POINT('',(3.46667389989702E-32,27.,0.));
#472=CARTESIAN_POINT('Origin',(3.,27.,0.));
#473=CARTESIAN_POINT('',(0.,27.,0.));
#474=CARTESIAN_POINT('Origin',(10.,15.,0.));
#475=CARTESIAN_POINT('',(17.,30.,0.));
#476=CARTESIAN_POINT('',(20.,30.,0.));
#477=CARTESIAN_POINT('',(20.,27.,0.));
#478=CARTESIAN_POINT('Origin',(17.,27.,0.));
#479=CARTESIAN_POINT('',(20.,3.,0.));
#480=CARTESIAN_POINT('',(20.,-2.81185771880536E-31,0.));
#481=CARTESIAN_POINT('',(17.,-2.39007906098456E-31,0.));
#482=CARTESIAN_POINT('Origin',(17.,3.,0.));
#483=CARTESIAN_POINT('',(3.,-4.21778657820805E-32,0.));
#484=CARTESIAN_POINT('',(0.,0.,0.));
#485=CARTESIAN_POINT('',(3.85185988877446E-33,3.,0.));
#486=CARTESIAN_POINT('Origin',(3.,3.,0.));
#487=CARTESIAN_POINT('',(3.85185988877447E-32,30.,0.));
#488=CARTESIAN_POINT('Origin',(20.,30.,0.));
#489=CARTESIAN_POINT('',(17.,30.,6.8));
#490=CARTESIAN_POINT('',(20.,30.,6.8));
#491=CARTESIAN_POINT('',(17.,30.,0.));
#492=CARTESIAN_POINT('Origin',(17.,27.,0.));
#493=CARTESIAN_POINT('',(20.,27.,6.8));
#494=CARTESIAN_POINT('Origin',(17.,27.,6.8));
#495=CARTESIAN_POINT('',(20.,27.,0.));
#496=CARTESIAN_POINT('Origin',(3.,3.,0.));
#497=CARTESIAN_POINT('',(3.,-4.21778657820805E-32,6.8));
#498=CARTESIAN_POINT('',(3.85185988877446E-33,3.,6.8));
#499=CARTESIAN_POINT('Origin',(3.,3.,6.8));
#500=CARTESIAN_POINT('',(0.,3.,0.));
#501=CARTESIAN_POINT('',(3.,0.,0.));
#502=CARTESIAN_POINT('Origin',(0.,0.,0.));
#503=CARTESIAN_POINT('',(17.,-2.39007906098456E-31,6.8));
#504=CARTESIAN_POINT('',(17.,0.,0.));
#505=CARTESIAN_POINT('',(0.,0.,6.8));
#506=CARTESIAN_POINT('',(9.6,0.,3.25));
#507=CARTESIAN_POINT('Origin',(10.1,0.,3.25));
#508=CARTESIAN_POINT('Origin',(17.,3.,0.));
#509=CARTESIAN_POINT('',(20.,3.,6.8));
#510=CARTESIAN_POINT('Origin',(17.,3.,6.8));
#511=CARTESIAN_POINT('',(20.,3.,0.));
#512=CARTESIAN_POINT('Origin',(10.1,0.,3.25));
#513=CARTESIAN_POINT('',(9.6,-1.,3.25));
#514=CARTESIAN_POINT('Origin',(10.1,-1.,3.25));
#515=CARTESIAN_POINT('',(9.6,0.,3.25));
#516=CARTESIAN_POINT('Origin',(10.1,-1.,3.25));
#517=CARTESIAN_POINT('Origin',(20.,-2.81185771880536E-31,0.));
#518=CARTESIAN_POINT('',(20.,-2.81185771880536E-31,6.8));
#519=CARTESIAN_POINT('Origin',(3.85185988877447E-32,30.,0.));
#520=CARTESIAN_POINT('',(3.85185988877447E-32,30.,6.8));
#521=CARTESIAN_POINT('Origin',(10.,15.,6.8));
#522=CARTESIAN_POINT('',(0.,0.,0.));
#523=UNCERTAINTY_MEASURE_WITH_UNIT(LENGTH_MEASURE(0.01),#529,
'DISTANCE_ACCURACY_VALUE',
'Maximum model space distance between geometric entities at asserted c
onnectivities');
#524=UNCERTAINTY_MEASURE_WITH_UNIT(LENGTH_MEASURE(0.01),#529,
'DISTANCE_ACCURACY_VALUE',
'Maximum model space distance between geometric entities at asserted c
onnectivities');
#525=UNCERTAINTY_MEASURE_WITH_UNIT(LENGTH_MEASURE(0.01),#529,
'DISTANCE_ACCURACY_VALUE',
'Maximum model space distance between geometric entities at asserted c
onnectivities');
#526=(
GEOMETRIC_REPRESENTATION_CONTEXT(3)
GLOBAL_UNCERTAINTY_ASSIGNED_CONTEXT((#523))
GLOBAL_UNIT_ASSIGNED_CONTEXT((#529,#531,#532))
REPRESENTATION_CONTEXT('','3D')
);
#527=(
GEOMETRIC_REPRESENTATION_CONTEXT(3)
GLOBAL_UNCERTAINTY_ASSIGNED_CONTEXT((#524))
GLOBAL_UNIT_ASSIGNED_CONTEXT((#529,#531,#532))
REPRESENTATION_CONTEXT('','3D')
);
#528=(
GEOMETRIC_REPRESENTATION_CONTEXT(3)
GLOBAL_UNCERTAINTY_ASSIGNED_CONTEXT((#525))
GLOBAL_UNIT_ASSIGNED_CONTEXT((#529,#531,#532))
REPRESENTATION_CONTEXT('','3D')
);
#529=(
LENGTH_UNIT()
NAMED_UNIT(*)
SI_UNIT(.MILLI.,.METRE.)
);
#530=(
LENGTH_UNIT()
NAMED_UNIT(*)
SI_UNIT($,.METRE.)
);
#531=(
NAMED_UNIT(*)
PLANE_ANGLE_UNIT()
SI_UNIT($,.RADIAN.)
);
#532=(
NAMED_UNIT(*)
SI_UNIT($,.STERADIAN.)
SOLID_ANGLE_UNIT()
);
#533=SHAPE_DEFINITION_REPRESENTATION(#535,#538);
#534=SHAPE_DEFINITION_REPRESENTATION(#536,#539);
#535=PRODUCT_DEFINITION_SHAPE('',$,#541);
#536=PRODUCT_DEFINITION_SHAPE('',$,#542);
#537=PRODUCT_DEFINITION_SHAPE($,$,#14);
#538=SHAPE_REPRESENTATION('',(#311,#344),#526);
#539=SHAPE_REPRESENTATION('',(#312),#527);
#540=PRODUCT_DEFINITION_CONTEXT('part definition',#548,'design');
#541=PRODUCT_DEFINITION('reprak','reprak v5',#543,#540);
#542=PRODUCT_DEFINITION('Reprak_1','Reprak',#544,#540);
#543=PRODUCT_DEFINITION_FORMATION('',$,#550);
#544=PRODUCT_DEFINITION_FORMATION('',$,#551);
#545=PRODUCT_RELATED_PRODUCT_CATEGORY('reprak v5','reprak v5',(#550));
#546=PRODUCT_RELATED_PRODUCT_CATEGORY('Reprak','Reprak',(#551));
#547=APPLICATION_PROTOCOL_DEFINITION('international standard',
'automotive_design',2009,#548);
#548=APPLICATION_CONTEXT(
'Core Data for Automotive Mechanical Design Process');
#549=PRODUCT_CONTEXT('part definition',#548,'mechanical');
#550=PRODUCT('reprak','reprak v5',$,(#549));
#551=PRODUCT('Reprak_1','Reprak',$,(#549));
#552=PRESENTATION_STYLE_ASSIGNMENT((#554));
#553=PRESENTATION_STYLE_ASSIGNMENT((#555));
#554=SURFACE_STYLE_USAGE(.BOTH.,#556);
#555=SURFACE_STYLE_USAGE(.BOTH.,#557);
#556=SURFACE_SIDE_STYLE('',(#558));
#557=SURFACE_SIDE_STYLE('',(#559));
#558=SURFACE_STYLE_FILL_AREA(#560);
#559=SURFACE_STYLE_FILL_AREA(#561);
#560=FILL_AREA_STYLE('Steel - Satin',(#562));
#561=FILL_AREA_STYLE('Plastic - Matte (Black)',(#563));
#562=FILL_AREA_STYLE_COLOUR('Steel - Satin',#564);
#563=FILL_AREA_STYLE_COLOUR('Plastic - Matte (Black)',#565);
#564=COLOUR_RGB('Steel - Satin',0.627450980392157,0.627450980392157,0.627450980392157);
#565=COLOUR_RGB('Plastic - Matte (Black)',0.0980392156862745,0.0980392156862745,
0.0980392156862745);
ENDSEC;
END-ISO-10303-21;
